<svg width="40" height="40" viewBox="0 0 40 40" fill="none" xmlns="http://www.w3.org/2000/svg">
<path d="M20.4009 13.156C18.5692 13.156 16.8126 13.8836 15.5174 15.1788C14.2222 16.474 13.4946 18.2306 13.4946 20.0622C13.4946 21.8939 14.2222 23.6505 15.5174 24.9457C16.8126 26.2408 18.5692 26.9685 20.4009 26.9685C22.2325 26.9685 23.9891 26.2408 25.2843 24.9457C26.5795 23.6505 27.3071 21.8939 27.3071 20.0622C27.3071 18.2306 26.5795 16.474 25.2843 15.1788C23.9891 13.8836 22.2325 13.156 20.4009 13.156Z" fill="black"/>
<path fill-rule="evenodd" clip-rule="evenodd" d="M9.28684 1.11187C16.6734 0.293113 24.1277 0.293113 31.5143 1.11187C35.5496 1.56237 38.803 4.73924 39.2769 8.78947C40.1528 16.2793 40.1528 23.8458 39.2769 31.3357C38.803 35.3859 35.5496 38.5628 31.5164 39.0154C24.1292 39.8344 16.6741 39.8344 9.28684 39.0154C5.25148 38.5628 1.99812 35.3859 1.52424 31.3378C0.648169 23.8472 0.648169 16.28 1.52424 8.78947C1.99812 4.73924 5.25148 1.56237 9.28684 1.11187ZM31.0255 7.3126C30.4619 7.3126 29.9214 7.53649 29.5229 7.935C29.1244 8.33351 28.9005 8.87401 28.9005 9.4376C28.9005 10.0012 29.1244 10.5417 29.5229 10.9402C29.9214 11.3387 30.4619 11.5626 31.0255 11.5626C31.5891 11.5626 32.1296 11.3387 32.5281 10.9402C32.9266 10.5417 33.1505 10.0012 33.1505 9.4376C33.1505 8.87401 32.9266 8.33351 32.5281 7.935C32.1296 7.53649 31.5891 7.3126 31.0255 7.3126ZM10.3068 20.0626C10.3068 17.3855 11.3703 14.8182 13.2632 12.9252C15.1562 11.0323 17.7235 9.96884 20.4006 9.96884C23.0776 9.96884 25.645 11.0323 27.5379 12.9252C29.4308 14.8182 30.4943 17.3855 30.4943 20.0626C30.4943 22.7396 29.4308 25.307 27.5379 27.1999C25.645 29.0928 23.0776 30.1563 20.4006 30.1563C17.7235 30.1563 15.1562 29.0928 13.2632 27.1999C11.3703 25.307 10.3068 22.7396 10.3068 20.0626Z" fill="black"/>
</svg>
