<svg width="35" height="40" viewBox="0 0 35 40" fill="none" xmlns="http://www.w3.org/2000/svg">
<path d="M27.3688 6.9312C25.9162 5.2729 25.1157 3.14326 25.1163 0.938721H18.55V27.2886C18.4994 28.7146 17.8974 30.0652 16.8708 31.0561C15.8442 32.047 14.4731 32.6009 13.0463 32.6011C10.0288 32.6011 7.52132 30.1361 7.52132 27.0761C7.52132 23.4212 11.0488 20.6799 14.6825 21.8062V15.0912C7.35132 14.1137 0.933838 19.8087 0.933838 27.0761C0.933838 34.1524 6.79882 39.1886 13.0251 39.1886C19.6975 39.1886 25.1163 33.7699 25.1163 27.0761V13.7099C27.7789 15.6221 30.9756 16.648 34.2537 16.6424V10.0762C34.2537 10.0762 30.2587 10.2674 27.3688 6.9312Z" fill="black"/>
</svg>
