<svg width="43" height="30" viewBox="0 0 43 30" fill="none" xmlns="http://www.w3.org/2000/svg">
<path d="M17.2536 21.4387L28.2823 15.0637L17.2536 8.68869V21.4387ZM41.8185 4.79996C42.0948 5.7987 42.286 7.13745 42.4135 8.83744C42.5623 10.5374 42.626 12.0037 42.626 13.2787L42.7535 15.0637C42.7535 19.7174 42.4135 23.1386 41.8185 25.3274C41.2873 27.2399 40.0548 28.4724 38.1423 29.0036C37.1435 29.2799 35.3161 29.4711 32.5111 29.5986C29.7486 29.7474 27.2198 29.8111 24.8823 29.8111L21.5036 29.9386C12.5999 29.9386 7.05364 29.5986 4.8649 29.0036C2.9524 28.4724 1.71991 27.2399 1.18866 25.3274C0.91241 24.3286 0.721161 22.9899 0.593661 21.2899C0.444912 19.5899 0.381162 18.1237 0.381162 16.8487L0.253662 15.0637C0.253662 10.4099 0.593661 6.9887 1.18866 4.79996C1.71991 2.88746 2.9524 1.65497 4.8649 1.12372C5.86364 0.847469 7.69114 0.656219 10.4961 0.528719C13.2586 0.37997 15.7874 0.31622 18.1249 0.31622L21.5036 0.188721C30.4073 0.188721 35.9535 0.52872 38.1423 1.12372C40.0548 1.65497 41.2873 2.88746 41.8185 4.79996Z" fill="black"/>
</svg>
