<svg width="48" height="48" viewBox="0 0 48 48" fill="none" xmlns="http://www.w3.org/2000/svg">
<path d="M24.3872 14.7412C22.0251 14.7412 19.7598 15.6795 18.0895 17.3498C16.4193 19.02 15.481 21.2854 15.481 23.6474C15.481 26.0095 16.4193 28.2749 18.0895 29.9451C19.7598 31.6153 22.0251 32.5537 24.3872 32.5537C26.7493 32.5537 29.0146 31.6153 30.6848 29.9451C32.3551 28.2749 33.2934 26.0095 33.2934 23.6474C33.2934 21.2854 32.3551 19.02 30.6848 17.3498C29.0146 15.6795 26.7493 14.7412 24.3872 14.7412Z" fill="url(#paint0_linear_124_14)" stroke="black" stroke-width="4"/>
<path d="M13.0528 2.70925L13.0513 2.70942C8.10707 3.26138 4.10802 7.15167 3.52412 12.1423L3.52411 12.1423C2.62998 19.7873 2.62998 27.5104 3.52411 35.1553L3.52414 35.1555C4.10813 40.1443 8.1073 44.0337 13.0502 44.5881L13.0528 44.5884C20.5865 45.4236 28.1894 45.4236 35.7231 44.5884L35.7258 44.5881C40.667 44.0336 44.6658 40.1437 45.2497 35.1533L45.2497 35.1532C46.1437 27.509 46.1437 19.7866 45.2497 12.1424L45.2497 12.1423C44.6658 7.15167 40.6667 3.26138 35.7225 2.70942L35.7209 2.70925C28.188 1.87426 20.5858 1.87426 13.0528 2.70925ZM34.9235 12.9344C34.9469 12.911 34.9787 12.8978 35.0119 12.8978C35.045 12.8978 35.0768 12.911 35.1002 12.9344C35.1237 12.9579 35.1368 12.9897 35.1368 13.0228C35.1368 13.0559 35.1237 13.0877 35.1002 13.1112C35.0768 13.1346 35.045 13.1478 35.0119 13.1478C34.9787 13.1478 34.9469 13.1346 34.9235 13.1112C34.9 13.0877 34.8869 13.056 34.8869 13.0228C34.8869 12.9896 34.9 12.9579 34.9235 12.9344ZM16.2932 23.6478C16.2932 21.5012 17.1459 19.4425 18.6638 17.9246C20.1816 16.4068 22.2403 15.554 24.3869 15.554C26.5335 15.554 28.5921 16.4068 30.11 17.9246C31.6279 19.4425 32.4806 21.5012 32.4806 23.6478C32.4806 25.7944 31.6279 27.853 30.11 29.3709C28.5921 30.8888 26.5335 31.7415 24.3869 31.7415C22.2403 31.7415 20.1816 30.8888 18.6638 29.3709C17.1459 27.853 16.2932 25.7944 16.2932 23.6478Z" fill="url(#paint1_linear_124_14)" stroke="black" stroke-width="4"/>
<defs>
<linearGradient id="paint0_linear_124_14" x1="17.481" y1="30.5536" x2="31.2934" y2="30.5536" gradientUnits="userSpaceOnUse">
<stop stop-color="#EA9A83"/>
<stop offset="0.203125" stop-color="#CDD661"/>
<stop offset="0.494792" stop-color="#93EC78"/>
<stop offset="0.71875" stop-color="#5AD6E0"/>
<stop offset="1" stop-color="#996BFB"/>
</linearGradient>
<linearGradient id="paint1_linear_124_14" x1="4.85352" y1="43.2145" x2="43.9202" y2="43.2145" gradientUnits="userSpaceOnUse">
<stop stop-color="#EA9A83"/>
<stop offset="0.203125" stop-color="#CDD661"/>
<stop offset="0.494792" stop-color="#93EC78"/>
<stop offset="0.71875" stop-color="#5AD6E0"/>
<stop offset="1" stop-color="#996BFB"/>
</linearGradient>
</defs>
</svg>
