<svg width="48" height="48" viewBox="0 0 48 48" fill="none" xmlns="http://www.w3.org/2000/svg">
<path d="M24.3872 14.8545C22.0251 14.8545 19.7598 15.7928 18.0895 17.4631C16.4193 19.1333 15.481 21.3986 17.481 23.7607C15.481 26.1228 16.4193 28.3881 18.0895 30.0584C19.7598 31.7286 22.0251 32.6669 24.3872 32.6669C26.7493 32.6669 29.0146 31.7286 30.6848 30.0584C32.3551 28.3881 33.2934 26.1228 33.2934 23.7607C33.2934 21.3986 32.3551 19.1333 30.6848 17.4631C29.0146 15.7928 26.7493 14.8545 24.3872 14.8545Z" fill="black" stroke="white" stroke-width="4"/>
<path d="M13.0528 2.82253L13.0513 2.82271C8.10707 3.37467 4.10802 7.26495 3.52412 12.2555L3.52411 12.2556C2.62998 19.9006 2.62998 27.6237 3.52411 35.2686L3.52414 35.2688C4.10813 40.2576 8.1073 44.147 13.0502 44.7014L13.0528 44.7017C20.5865 45.5369 28.1894 45.5369 35.7231 44.7017L35.7258 44.7014C40.667 44.1469 44.6658 40.257 45.2497 35.2666L45.2497 35.2665C46.1437 27.6222 46.1437 19.8999 45.2497 12.2556L45.2497 12.2555C44.6658 7.26495 40.6667 3.37467 35.7225 2.82271L35.7209 2.82253C28.188 1.98754 20.5858 1.98754 13.0528 2.82253ZM43.2632 35.0341C42.7893 39.0844 39.536 42.2612 35.5027 42.7139L43.2632 35.0341ZM34.9235 13.0477C34.9469 13.0243 34.9787 13.0111 35.0119 13.0111C35.045 13.0111 35.0768 13.0243 35.1002 13.0477C35.1237 13.0711 35.1368 13.1029 35.1368 13.1361C35.1368 13.1692 35.1237 13.201 35.1002 13.2245C35.0768 13.2479 35.045 13.2611 35.0119 13.2611C34.9787 13.2611 34.9469 13.2479 34.9235 13.2245C34.9 13.201 34.8869 13.1692 34.8869 13.1361C34.8869 13.1029 34.9 13.0711 34.9235 13.0477ZM16.2932 23.761C16.2932 21.6145 17.1459 19.5558 18.6638 18.0379C20.1816 16.5201 22.2403 15.6673 24.3869 15.6673C26.5335 15.6673 28.5921 16.5201 30.11 18.0379C31.6279 19.5558 32.4806 21.6145 32.4806 23.761C32.4806 25.9076 31.6279 27.9663 30.11 29.4842C28.5921 31.002 26.5335 31.8548 24.3869 31.8548C22.2403 31.8548 20.1816 31.002 18.6638 29.4842C17.1459 27.9663 16.2932 25.9076 16.2932 23.761Z" fill="black" stroke="white" stroke-width="4"/>
</svg>
