<svg width="43" height="47" viewBox="0 0 43 47" fill="none" xmlns="http://www.w3.org/2000/svg">
<path d="M20.5364 28.0645L18.0768 27.3022C15.7645 26.5855 13.5076 28.3178 13.5076 30.6618C13.5076 32.6072 15.1095 34.1867 17.0323 34.1868L20.5364 28.0645ZM20.5364 28.0645V30.8348C20.4965 31.7314 20.1144 32.579 19.4681 33.2028C18.8144 33.8339 17.9413 34.1866 17.0326 34.1868L20.5364 28.0645ZM32.8668 9.2074L32.8668 9.20738L32.8595 9.19907C31.7265 7.90561 31.1021 6.24449 31.1026 4.52496L31.1031 2.52441H29.1026H22.5364H20.5364V4.52441V16.9082L18.9332 16.6944C10.4003 15.5567 2.92017 22.1875 2.92017 30.6618C2.92017 38.9284 9.7683 44.7743 17.0114 44.7743C24.7907 44.7743 31.1026 38.4578 31.1026 30.6618V20.7295C33.3401 21.7165 35.7713 22.2324 38.2435 22.2281L40.2401 22.2247V20.2281V13.6619V11.5639L38.1571 11.6636C38.1566 11.6636 38.156 11.6636 38.1554 11.6636C38.145 11.6638 38.1212 11.6641 38.0852 11.6637C38.0128 11.6629 37.8924 11.6592 37.7331 11.6462C37.4128 11.6201 36.9468 11.5573 36.4053 11.4103C35.3231 11.1165 33.988 10.5017 32.8668 9.2074Z" fill="url(#paint0_linear_124_9)" stroke="black" stroke-width="4"/>
<defs>
<linearGradient id="paint0_linear_124_9" x1="4.92017" y1="42.774" x2="38.2401" y2="42.774" gradientUnits="userSpaceOnUse">
<stop stop-color="#EA9A83"/>
<stop offset="0.203125" stop-color="#CDD661"/>
<stop offset="0.494792" stop-color="#93EC78"/>
<stop offset="0.71875" stop-color="#5AD6E0"/>
<stop offset="1" stop-color="#996BFB"/>
</linearGradient>
</defs>
</svg>
