<svg width="43" height="47" viewBox="0 0 43 47" fill="none" xmlns="http://www.w3.org/2000/svg">
<path d="M20.5364 28.1778L18.0768 27.4155C15.7645 26.6988 13.5076 28.4311 13.5076 30.7751C13.5076 32.7205 15.1095 34.2999 17.0323 34.3001L20.5364 28.1778ZM20.5364 28.1778V30.9481C20.4965 31.8446 20.1144 32.6923 19.4681 33.3161C18.8144 33.9471 17.9413 34.2999 17.0326 34.3001L20.5364 28.1778ZM32.8668 9.32068L32.8668 9.32066L32.8595 9.31236C31.7265 8.01889 31.1021 6.35777 31.1026 4.63825L31.1031 2.6377H29.1026H22.5364H20.5364V4.6377V17.0214L18.9332 16.8077C10.4003 15.67 2.92017 22.3008 2.92017 30.7751C2.92017 39.0416 9.7683 44.8876 17.0114 44.8876C24.7907 44.8876 31.1026 38.5711 31.1026 30.7751V20.8428C33.3401 21.8298 35.7713 22.3456 38.2435 22.3414L40.2401 22.338V20.3414V13.7752V11.6771L38.1571 11.7768C38.1566 11.7769 38.156 11.7769 38.1554 11.7769C38.145 11.7771 38.1212 11.7774 38.0852 11.777C38.0128 11.7762 37.8924 11.7725 37.7331 11.7595C37.4128 11.7334 36.9468 11.6706 36.4053 11.5236C35.3231 11.2298 33.988 10.615 32.8668 9.32068Z" fill="black" stroke="white" stroke-width="4"/>
</svg>
