<svg width="51" height="39" viewBox="0 0 51 39" fill="none" xmlns="http://www.w3.org/2000/svg">
<path d="M47.7325 8.85248L47.7319 8.85036C47.0129 6.26199 45.2523 4.50137 42.6639 3.78238L42.6639 3.78235L42.6533 3.77945C41.3374 3.42175 39.217 3.18156 36.4421 3.02208C33.6167 2.8597 29.9627 2.77441 25.4899 2.77441H25.4522L25.4145 2.77584L22.0733 2.90192C19.7121 2.9026 17.1627 2.96734 14.3833 3.11686C11.6068 3.24326 9.56416 3.43712 8.31805 3.78179L8.31594 3.78238C5.72756 4.50137 3.96695 6.26198 3.24795 8.85036L3.24792 8.85035L3.24503 8.861C2.57964 11.3087 2.23999 14.9415 2.23999 19.6494V19.7207L2.24507 19.7919L2.36755 21.5066C2.36991 22.827 2.43694 24.3246 2.58652 26.0376C2.71759 27.7794 2.92052 29.2646 3.24736 30.4463L3.24795 30.4484C3.96695 33.0367 5.72756 34.7974 8.31594 35.5164L8.31593 35.5164L8.32658 35.5193C9.64241 35.877 11.7628 36.1172 14.5377 36.2767C17.3632 36.439 21.0172 36.5243 25.4899 36.5243H25.5276L25.5653 36.5229L28.9065 36.3968C31.2677 36.3961 33.8172 36.3314 36.5966 36.1819C39.3731 36.0555 41.4157 35.8616 42.6618 35.5169L42.6639 35.5164C45.2523 34.7974 47.0129 33.0367 47.7319 30.4484L47.7348 30.4377C48.4002 27.9901 48.7399 24.3573 48.7399 19.6494V19.578L48.7348 19.5069L48.6123 17.7921C48.6099 16.4717 48.5429 14.9742 48.3933 13.2614C48.2623 11.5195 48.0593 10.0342 47.7325 8.85248ZM23.2399 16.7405L28.2722 19.6494L23.2399 22.5582V16.7405Z" fill="url(#paint0_linear_124_11)" stroke="black" stroke-width="4"/>
<defs>
<linearGradient id="paint0_linear_124_11" x1="4.23999" y1="34.5241" x2="46.7399" y2="34.5241" gradientUnits="userSpaceOnUse">
<stop stop-color="#EA9A83"/>
<stop offset="0.203125" stop-color="#CDD661"/>
<stop offset="0.494792" stop-color="#93EC78"/>
<stop offset="0.71875" stop-color="#5AD6E0"/>
<stop offset="1" stop-color="#996BFB"/>
</linearGradient>
</defs>
</svg>
