<svg width="51" height="39" viewBox="0 0 51 39" fill="none" xmlns="http://www.w3.org/2000/svg">
<path d="M47.7325 8.96576L47.7319 8.96364C47.0129 6.37527 45.2523 4.61465 42.6639 3.89566L42.6639 3.89563L42.6533 3.89273C41.3374 3.53503 39.217 3.29484 36.4421 3.13536C33.6167 2.97298 29.9627 2.8877 25.4899 2.8877H25.4522L25.4145 2.88912L22.0733 3.0152C19.7121 3.01588 17.1627 3.08062 14.3833 3.23014C11.6068 3.35654 9.56416 3.5504 8.31805 3.89507L8.31594 3.89566C5.72756 4.61465 3.96695 6.37527 3.24795 8.96364L3.24792 8.96363L3.24503 8.97428C2.57964 11.422 2.23999 15.0548 2.23999 19.7626V19.834L2.24507 19.9051L2.36755 21.6199C2.36991 22.9403 2.43694 24.4379 2.58652 26.1509C2.71759 27.8927 2.92052 29.3779 3.24736 30.5595L3.24795 30.5617C3.96695 33.15 5.72756 34.9106 8.31594 35.6296L8.31593 35.6297L8.32658 35.6326C9.6424 35.9903 11.7628 36.2305 14.5377 36.3899C17.3632 36.5523 21.0172 36.6376 25.4899 36.6376H25.5276L25.5653 36.6362L28.9065 36.5101C31.2677 36.5094 33.8172 36.4447 36.5966 36.2952C39.3731 36.1688 41.4157 35.9749 42.6618 35.6302L42.6639 35.6296C45.2523 34.9106 47.0129 33.15 47.7319 30.5617L47.7319 30.5617L47.7348 30.551C48.4002 28.1033 48.7399 24.4705 48.7399 19.7626V19.6913L48.7348 19.6202L48.6123 17.9054C48.6099 16.585 48.5429 15.0875 48.3933 13.3747C48.2623 11.6328 48.0593 10.1475 47.7325 8.96576ZM23.2399 16.8538L28.2722 19.7626L23.2399 22.6715V16.8538Z" fill="black" stroke="white" stroke-width="4"/>
</svg>
